
<svg xmlns="http://www.w3.org/2000/svg" width="46" height="46" viewBox="0 0 46 46">
  <g fill="none" fill-rule="evenodd">
    <path d="M23 9.5c3.18 0 5.78 1.3 7.6 3.4l5.6-5.6C32.3 3.5 27.9 1.5 23 1.5 14.8 1.5 7.9 6.9 5.3 14h6.7c1.7-3.4 5.3-5.7 9.4-5.7z" fill="#EA4335"/>
    <path d="M44.5 23c0-1.6-.1-2.8-.3-4.1H23v7.8h12.1c-.5 2.6-1.8 4.8-3.7 6.3l6 4.7c3.5-3.3 5.5-8.2 5.5-14.7z" fill="#4285F4"/>
    <path d="M12 27.3c-.6-1.7-.9-3.5-.9-5.3s.3-3.6.9-5.3l-6.7-5C3.1 15.2 2 18 2 22s1.1 6.8 3.3 9.4l6.7-5.1z" fill="#FBBC05"/>
    <path d="M23 43c4.9 0 9-1.6 12-4.3l-6-4.7c-1.6 1.1-3.6 1.7-6 1.7-4.1 0-7.6-2.8-8.9-6.7h-6.8l-6.7 5.1C7.9 39.1 14.8 43 23 43z" fill="#34A853"/>
    <path d="M2 2h42v42H2z"/>
  </g>
</svg>
